# xmcd
#
# Track frame offsets:
# 150
# 16275
# 65852
# 88082
# 99397
#
# Disc length: 1826 seconds
#
#
# Revision: 0
# Processed by: cddbd v1.5.1PL2 Copyright (c) Steve Scherf et al.
# Submitted via: FreeRIP 2.53 
#
DISCID=3b072005
DTITLE=Hartmut El Kurdi and The Twang - Smoke On The Water
DYEAR=2005
DGENRE=Country
TTITLE0=Smoke On The Water
TTITLE1=Tangled Up In Stockholm
TTITLE2=Sara
TTITLE3=I Still Haven't Found What I'm Looking For
TTITLE4=Smoke On The Water (Live)
EXTD=
EXTT0=
EXTT1=
EXTT2=
EXTT3=
EXTT4=
PLAYORDER=
